<?xml version="1.0" encoding="utf-8" standalone="no"?>
<!DOCTYPE svg PUBLIC "-//W3C//DTD SVG 1.1//EN"
  "http://www.w3.org/Graphics/SVG/1.1/DTD/svg11.dtd">
<svg xmlns:xlink="http://www.w3.org/1999/xlink" width="592.761724pt" height="254.541412pt" viewBox="0 0 592.761724 254.541412" xmlns="http://www.w3.org/2000/svg" version="1.1">
 <metadata>
  <rdf:RDF xmlns:dc="http://purl.org/dc/elements/1.1/" xmlns:cc="http://creativecommons.org/ns#" xmlns:rdf="http://www.w3.org/1999/02/22-rdf-syntax-ns#">
   <cc:Work>
    <dc:type rdf:resource="http://purl.org/dc/dcmitype/StillImage"/>
    <dc:date>2025-03-22T22:48:51.076294</dc:date>
    <dc:format>image/svg+xml</dc:format>
    <dc:creator>
     <cc:Agent>
      <dc:title>Matplotlib v3.8.2, https://matplotlib.org/</dc:title>
     </cc:Agent>
    </dc:creator>
   </cc:Work>
  </rdf:RDF>
 </metadata>
 <defs>
  <style type="text/css">*{stroke-linejoin: round; stroke-linecap: butt}</style>
 </defs>
 <g id="figure_1">
  <g id="patch_1">
   <path d="M 0 254.541412 
L 592.761724 254.541412 
L 592.761724 0 
L 0 0 
z
" style="fill: #ffffff"/>
  </g>
  <g id="axes_1">
   <g id="patch_2">
    <path d="M 9.441724 212.5636 
L 585.561724 212.5636 
L 585.561724 49.5916 
L 9.441724 49.5916 
z
" style="fill: #ffffff"/>
   </g>
   <g id="matplotlib.axis_1">
    <g id="xtick_1">
     <g id="line2d_1">
      <path d="M 16.235 212.5636 
L 16.235 49.5916 
" clip-path="url(#paf36677d1b)" style="fill: none; stroke: #cccccc; stroke-width: 0.8; stroke-linecap: round"/>
     </g>
     <g id="text_1">
      <!-- 0.0 -->
      <g style="fill: #262626" transform="translate(7.2 228.868756) scale(0.13 -0.13)">
       <defs>
        <path id="ArialMT-30" d="M 266 2259 
Q 266 3072 433 3567 
Q 600 4063 929 4331 
Q 1259 4600 1759 4600 
Q 2128 4600 2406 4451 
Q 2684 4303 2865 4023 
Q 3047 3744 3150 3342 
Q 3253 2941 3253 2259 
Q 3253 1453 3087 958 
Q 2922 463 2592 192 
Q 2263 -78 1759 -78 
Q 1097 -78 719 397 
Q 266 969 266 2259 
z
M 844 2259 
Q 844 1131 1108 757 
Q 1372 384 1759 384 
Q 2147 384 2411 759 
Q 2675 1134 2675 2259 
Q 2675 3391 2411 3762 
Q 2147 4134 1753 4134 
Q 1366 4134 1134 3806 
Q 844 3388 844 2259 
z
" transform="scale(0.015625)"/>
        <path id="ArialMT-2e" d="M 581 0 
L 581 641 
L 1222 641 
L 1222 0 
L 581 0 
z
" transform="scale(0.015625)"/>
       </defs>
       <use xlink:href="#ArialMT-30"/>
       <use xlink:href="#ArialMT-2e" x="55.615234"/>
       <use xlink:href="#ArialMT-30" x="83.398438"/>
      </g>
     </g>
    </g>
    <g id="xtick_2">
     <g id="line2d_2">
      <path d="M 70.552237 212.5636 
L 70.552237 49.5916 
" clip-path="url(#paf36677d1b)" style="fill: none; stroke: #cccccc; stroke-width: 0.8; stroke-linecap: round"/>
     </g>
     <g id="text_2">
      <!-- 0.1 -->
      <g style="fill: #262626" transform="translate(61.517237 228.868756) scale(0.13 -0.13)">
       <defs>
        <path id="ArialMT-31" d="M 2384 0 
L 1822 0 
L 1822 3584 
Q 1619 3391 1289 3197 
Q 959 3003 697 2906 
L 697 3450 
Q 1169 3672 1522 3987 
Q 1875 4303 2022 4600 
L 2384 4600 
L 2384 0 
z
" transform="scale(0.015625)"/>
       </defs>
       <use xlink:href="#ArialMT-30"/>
       <use xlink:href="#ArialMT-2e" x="55.615234"/>
       <use xlink:href="#ArialMT-31" x="83.398438"/>
      </g>
     </g>
    </g>
    <g id="xtick_3">
     <g id="line2d_3">
      <path d="M 124.869474 212.5636 
L 124.869474 49.5916 
" clip-path="url(#paf36677d1b)" style="fill: none; stroke: #cccccc; stroke-width: 0.8; stroke-linecap: round"/>
     </g>
     <g id="text_3">
      <!-- 0.2 -->
      <g style="fill: #262626" transform="translate(115.834474 228.868756) scale(0.13 -0.13)">
       <defs>
        <path id="ArialMT-32" d="M 3222 541 
L 3222 0 
L 194 0 
Q 188 203 259 391 
Q 375 700 629 1000 
Q 884 1300 1366 1694 
Q 2113 2306 2375 2664 
Q 2638 3022 2638 3341 
Q 2638 3675 2398 3904 
Q 2159 4134 1775 4134 
Q 1369 4134 1125 3890 
Q 881 3647 878 3216 
L 300 3275 
Q 359 3922 746 4261 
Q 1134 4600 1788 4600 
Q 2447 4600 2831 4234 
Q 3216 3869 3216 3328 
Q 3216 3053 3103 2787 
Q 2991 2522 2730 2228 
Q 2469 1934 1863 1422 
Q 1356 997 1212 845 
Q 1069 694 975 541 
L 3222 541 
z
" transform="scale(0.015625)"/>
       </defs>
       <use xlink:href="#ArialMT-30"/>
       <use xlink:href="#ArialMT-2e" x="55.615234"/>
       <use xlink:href="#ArialMT-32" x="83.398438"/>
      </g>
     </g>
    </g>
    <g id="xtick_4">
     <g id="line2d_4">
      <path d="M 179.186711 212.5636 
L 179.186711 49.5916 
" clip-path="url(#paf36677d1b)" style="fill: none; stroke: #cccccc; stroke-width: 0.8; stroke-linecap: round"/>
     </g>
     <g id="text_4">
      <!-- 0.3 -->
      <g style="fill: #262626" transform="translate(170.151711 228.868756) scale(0.13 -0.13)">
       <defs>
        <path id="ArialMT-33" d="M 269 1209 
L 831 1284 
Q 928 806 1161 595 
Q 1394 384 1728 384 
Q 2125 384 2398 659 
Q 2672 934 2672 1341 
Q 2672 1728 2419 1979 
Q 2166 2231 1775 2231 
Q 1616 2231 1378 2169 
L 1441 2663 
Q 1497 2656 1531 2656 
Q 1891 2656 2178 2843 
Q 2466 3031 2466 3422 
Q 2466 3731 2256 3934 
Q 2047 4138 1716 4138 
Q 1388 4138 1169 3931 
Q 950 3725 888 3313 
L 325 3413 
Q 428 3978 793 4289 
Q 1159 4600 1703 4600 
Q 2078 4600 2393 4439 
Q 2709 4278 2876 4000 
Q 3044 3722 3044 3409 
Q 3044 3113 2884 2869 
Q 2725 2625 2413 2481 
Q 2819 2388 3044 2092 
Q 3269 1797 3269 1353 
Q 3269 753 2831 336 
Q 2394 -81 1725 -81 
Q 1122 -81 723 278 
Q 325 638 269 1209 
z
" transform="scale(0.015625)"/>
       </defs>
       <use xlink:href="#ArialMT-30"/>
       <use xlink:href="#ArialMT-2e" x="55.615234"/>
       <use xlink:href="#ArialMT-33" x="83.398438"/>
      </g>
     </g>
    </g>
    <g id="xtick_5">
     <g id="line2d_5">
      <path d="M 233.503948 212.5636 
L 233.503948 49.5916 
" clip-path="url(#paf36677d1b)" style="fill: none; stroke: #cccccc; stroke-width: 0.8; stroke-linecap: round"/>
     </g>
     <g id="text_5">
      <!-- 0.4 -->
      <g style="fill: #262626" transform="translate(224.468948 228.868756) scale(0.13 -0.13)">
       <defs>
        <path id="ArialMT-34" d="M 2069 0 
L 2069 1097 
L 81 1097 
L 81 1613 
L 2172 4581 
L 2631 4581 
L 2631 1613 
L 3250 1613 
L 3250 1097 
L 2631 1097 
L 2631 0 
L 2069 0 
z
M 2069 1613 
L 2069 3678 
L 634 1613 
L 2069 1613 
z
" transform="scale(0.015625)"/>
       </defs>
       <use xlink:href="#ArialMT-30"/>
       <use xlink:href="#ArialMT-2e" x="55.615234"/>
       <use xlink:href="#ArialMT-34" x="83.398438"/>
      </g>
     </g>
    </g>
    <g id="xtick_6">
     <g id="line2d_6">
      <path d="M 287.821186 212.5636 
L 287.821186 49.5916 
" clip-path="url(#paf36677d1b)" style="fill: none; stroke: #cccccc; stroke-width: 0.8; stroke-linecap: round"/>
     </g>
     <g id="text_6">
      <!-- 0.5 -->
      <g style="fill: #262626" transform="translate(278.786186 228.868756) scale(0.13 -0.13)">
       <defs>
        <path id="ArialMT-35" d="M 266 1200 
L 856 1250 
Q 922 819 1161 601 
Q 1400 384 1738 384 
Q 2144 384 2425 690 
Q 2706 997 2706 1503 
Q 2706 1984 2436 2262 
Q 2166 2541 1728 2541 
Q 1456 2541 1237 2417 
Q 1019 2294 894 2097 
L 366 2166 
L 809 4519 
L 3088 4519 
L 3088 3981 
L 1259 3981 
L 1013 2750 
Q 1425 3038 1878 3038 
Q 2478 3038 2890 2622 
Q 3303 2206 3303 1553 
Q 3303 931 2941 478 
Q 2500 -78 1738 -78 
Q 1113 -78 717 272 
Q 322 622 266 1200 
z
" transform="scale(0.015625)"/>
       </defs>
       <use xlink:href="#ArialMT-30"/>
       <use xlink:href="#ArialMT-2e" x="55.615234"/>
       <use xlink:href="#ArialMT-35" x="83.398438"/>
      </g>
     </g>
    </g>
    <g id="xtick_7">
     <g id="line2d_7">
      <path d="M 342.138423 212.5636 
L 342.138423 49.5916 
" clip-path="url(#paf36677d1b)" style="fill: none; stroke: #cccccc; stroke-width: 0.8; stroke-linecap: round"/>
     </g>
     <g id="text_7">
      <!-- 0.6 -->
      <g style="fill: #262626" transform="translate(333.103423 228.868756) scale(0.13 -0.13)">
       <defs>
        <path id="ArialMT-36" d="M 3184 3459 
L 2625 3416 
Q 2550 3747 2413 3897 
Q 2184 4138 1850 4138 
Q 1581 4138 1378 3988 
Q 1113 3794 959 3422 
Q 806 3050 800 2363 
Q 1003 2672 1297 2822 
Q 1591 2972 1913 2972 
Q 2475 2972 2870 2558 
Q 3266 2144 3266 1488 
Q 3266 1056 3080 686 
Q 2894 316 2569 119 
Q 2244 -78 1831 -78 
Q 1128 -78 684 439 
Q 241 956 241 2144 
Q 241 3472 731 4075 
Q 1159 4600 1884 4600 
Q 2425 4600 2770 4297 
Q 3116 3994 3184 3459 
z
M 888 1484 
Q 888 1194 1011 928 
Q 1134 663 1356 523 
Q 1578 384 1822 384 
Q 2178 384 2434 671 
Q 2691 959 2691 1453 
Q 2691 1928 2437 2201 
Q 2184 2475 1800 2475 
Q 1419 2475 1153 2201 
Q 888 1928 888 1484 
z
" transform="scale(0.015625)"/>
       </defs>
       <use xlink:href="#ArialMT-30"/>
       <use xlink:href="#ArialMT-2e" x="55.615234"/>
       <use xlink:href="#ArialMT-36" x="83.398438"/>
      </g>
     </g>
    </g>
    <g id="xtick_8">
     <g id="line2d_8">
      <path d="M 396.45566 212.5636 
L 396.45566 49.5916 
" clip-path="url(#paf36677d1b)" style="fill: none; stroke: #cccccc; stroke-width: 0.8; stroke-linecap: round"/>
     </g>
     <g id="text_8">
      <!-- 0.7 -->
      <g style="fill: #262626" transform="translate(387.42066 228.868756) scale(0.13 -0.13)">
       <defs>
        <path id="ArialMT-37" d="M 303 3981 
L 303 4522 
L 3269 4522 
L 3269 4084 
Q 2831 3619 2401 2847 
Q 1972 2075 1738 1259 
Q 1569 684 1522 0 
L 944 0 
Q 953 541 1156 1306 
Q 1359 2072 1739 2783 
Q 2119 3494 2547 3981 
L 303 3981 
z
" transform="scale(0.015625)"/>
       </defs>
       <use xlink:href="#ArialMT-30"/>
       <use xlink:href="#ArialMT-2e" x="55.615234"/>
       <use xlink:href="#ArialMT-37" x="83.398438"/>
      </g>
     </g>
    </g>
    <g id="xtick_9">
     <g id="line2d_9">
      <path d="M 450.772897 212.5636 
L 450.772897 49.5916 
" clip-path="url(#paf36677d1b)" style="fill: none; stroke: #cccccc; stroke-width: 0.8; stroke-linecap: round"/>
     </g>
     <g id="text_9">
      <!-- 0.8 -->
      <g style="fill: #262626" transform="translate(441.737897 228.868756) scale(0.13 -0.13)">
       <defs>
        <path id="ArialMT-38" d="M 1131 2484 
Q 781 2613 612 2850 
Q 444 3088 444 3419 
Q 444 3919 803 4259 
Q 1163 4600 1759 4600 
Q 2359 4600 2725 4251 
Q 3091 3903 3091 3403 
Q 3091 3084 2923 2848 
Q 2756 2613 2416 2484 
Q 2838 2347 3058 2040 
Q 3278 1734 3278 1309 
Q 3278 722 2862 322 
Q 2447 -78 1769 -78 
Q 1091 -78 675 323 
Q 259 725 259 1325 
Q 259 1772 486 2073 
Q 713 2375 1131 2484 
z
M 1019 3438 
Q 1019 3113 1228 2906 
Q 1438 2700 1772 2700 
Q 2097 2700 2305 2904 
Q 2513 3109 2513 3406 
Q 2513 3716 2298 3927 
Q 2084 4138 1766 4138 
Q 1444 4138 1231 3931 
Q 1019 3725 1019 3438 
z
M 838 1322 
Q 838 1081 952 856 
Q 1066 631 1291 507 
Q 1516 384 1775 384 
Q 2178 384 2440 643 
Q 2703 903 2703 1303 
Q 2703 1709 2433 1975 
Q 2163 2241 1756 2241 
Q 1359 2241 1098 1978 
Q 838 1716 838 1322 
z
" transform="scale(0.015625)"/>
       </defs>
       <use xlink:href="#ArialMT-30"/>
       <use xlink:href="#ArialMT-2e" x="55.615234"/>
       <use xlink:href="#ArialMT-38" x="83.398438"/>
      </g>
     </g>
    </g>
    <g id="xtick_10">
     <g id="line2d_10">
      <path d="M 505.090134 212.5636 
L 505.090134 49.5916 
" clip-path="url(#paf36677d1b)" style="fill: none; stroke: #cccccc; stroke-width: 0.8; stroke-linecap: round"/>
     </g>
     <g id="text_10">
      <!-- 0.9 -->
      <g style="fill: #262626" transform="translate(496.055134 228.868756) scale(0.13 -0.13)">
       <defs>
        <path id="ArialMT-39" d="M 350 1059 
L 891 1109 
Q 959 728 1153 556 
Q 1347 384 1650 384 
Q 1909 384 2104 503 
Q 2300 622 2425 820 
Q 2550 1019 2634 1356 
Q 2719 1694 2719 2044 
Q 2719 2081 2716 2156 
Q 2547 1888 2255 1720 
Q 1963 1553 1622 1553 
Q 1053 1553 659 1965 
Q 266 2378 266 3053 
Q 266 3750 677 4175 
Q 1088 4600 1706 4600 
Q 2153 4600 2523 4359 
Q 2894 4119 3086 3673 
Q 3278 3228 3278 2384 
Q 3278 1506 3087 986 
Q 2897 466 2520 194 
Q 2144 -78 1638 -78 
Q 1100 -78 759 220 
Q 419 519 350 1059 
z
M 2653 3081 
Q 2653 3566 2395 3850 
Q 2138 4134 1775 4134 
Q 1400 4134 1122 3828 
Q 844 3522 844 3034 
Q 844 2597 1108 2323 
Q 1372 2050 1759 2050 
Q 2150 2050 2401 2323 
Q 2653 2597 2653 3081 
z
" transform="scale(0.015625)"/>
       </defs>
       <use xlink:href="#ArialMT-30"/>
       <use xlink:href="#ArialMT-2e" x="55.615234"/>
       <use xlink:href="#ArialMT-39" x="83.398438"/>
      </g>
     </g>
    </g>
    <g id="xtick_11">
     <g id="line2d_11">
      <path d="M 559.407371 212.5636 
L 559.407371 49.5916 
" clip-path="url(#paf36677d1b)" style="fill: none; stroke: #cccccc; stroke-width: 0.8; stroke-linecap: round"/>
     </g>
     <g id="text_11">
      <!-- 1.0 -->
      <g style="fill: #262626" transform="translate(550.372371 228.868756) scale(0.13 -0.13)">
       <use xlink:href="#ArialMT-31"/>
       <use xlink:href="#ArialMT-2e" x="55.615234"/>
       <use xlink:href="#ArialMT-30" x="83.398438"/>
      </g>
     </g>
    </g>
    <g id="text_12">
     <!-- ROC AUC -->
     <g style="fill: #262626" transform="translate(267.885084 244.757662) scale(0.13 -0.13)">
      <defs>
       <path id="ArialMT-52" d="M 503 0 
L 503 4581 
L 2534 4581 
Q 3147 4581 3465 4457 
Q 3784 4334 3975 4021 
Q 4166 3709 4166 3331 
Q 4166 2844 3850 2509 
Q 3534 2175 2875 2084 
Q 3116 1969 3241 1856 
Q 3506 1613 3744 1247 
L 4541 0 
L 3778 0 
L 3172 953 
Q 2906 1366 2734 1584 
Q 2563 1803 2427 1890 
Q 2291 1978 2150 2013 
Q 2047 2034 1813 2034 
L 1109 2034 
L 1109 0 
L 503 0 
z
M 1109 2559 
L 2413 2559 
Q 2828 2559 3062 2645 
Q 3297 2731 3419 2920 
Q 3541 3109 3541 3331 
Q 3541 3656 3305 3865 
Q 3069 4075 2559 4075 
L 1109 4075 
L 1109 2559 
z
" transform="scale(0.015625)"/>
       <path id="ArialMT-4f" d="M 309 2231 
Q 309 3372 921 4017 
Q 1534 4663 2503 4663 
Q 3138 4663 3647 4359 
Q 4156 4056 4423 3514 
Q 4691 2972 4691 2284 
Q 4691 1588 4409 1038 
Q 4128 488 3612 205 
Q 3097 -78 2500 -78 
Q 1853 -78 1343 234 
Q 834 547 571 1087 
Q 309 1628 309 2231 
z
M 934 2222 
Q 934 1394 1379 917 
Q 1825 441 2497 441 
Q 3181 441 3623 922 
Q 4066 1403 4066 2288 
Q 4066 2847 3877 3264 
Q 3688 3681 3323 3911 
Q 2959 4141 2506 4141 
Q 1863 4141 1398 3698 
Q 934 3256 934 2222 
z
" transform="scale(0.015625)"/>
       <path id="ArialMT-43" d="M 3763 1606 
L 4369 1453 
Q 4178 706 3683 314 
Q 3188 -78 2472 -78 
Q 1731 -78 1267 223 
Q 803 525 561 1097 
Q 319 1669 319 2325 
Q 319 3041 592 3573 
Q 866 4106 1370 4382 
Q 1875 4659 2481 4659 
Q 3169 4659 3637 4309 
Q 4106 3959 4291 3325 
L 3694 3184 
Q 3534 3684 3231 3912 
Q 2928 4141 2469 4141 
Q 1941 4141 1586 3887 
Q 1231 3634 1087 3207 
Q 944 2781 944 2328 
Q 944 1744 1114 1308 
Q 1284 872 1643 656 
Q 2003 441 2422 441 
Q 2931 441 3284 734 
Q 3638 1028 3763 1606 
z
" transform="scale(0.015625)"/>
       <path id="ArialMT-20" transform="scale(0.015625)"/>
       <path id="ArialMT-41" d="M -9 0 
L 1750 4581 
L 2403 4581 
L 4278 0 
L 3588 0 
L 3053 1388 
L 1138 1388 
L 634 0 
L -9 0 
z
M 1313 1881 
L 2866 1881 
L 2388 3150 
Q 2169 3728 2063 4100 
Q 1975 3659 1816 3225 
L 1313 1881 
z
" transform="scale(0.015625)"/>
       <path id="ArialMT-55" d="M 3500 4581 
L 4106 4581 
L 4106 1934 
Q 4106 1244 3950 837 
Q 3794 431 3386 176 
Q 2978 -78 2316 -78 
Q 1672 -78 1262 144 
Q 853 366 678 786 
Q 503 1206 503 1934 
L 503 4581 
L 1109 4581 
L 1109 1938 
Q 1109 1341 1220 1058 
Q 1331 775 1601 622 
Q 1872 469 2263 469 
Q 2931 469 3215 772 
Q 3500 1075 3500 1938 
L 3500 4581 
z
" transform="scale(0.015625)"/>
      </defs>
      <use xlink:href="#ArialMT-52"/>
      <use xlink:href="#ArialMT-4f" x="72.216797"/>
      <use xlink:href="#ArialMT-43" x="150"/>
      <use xlink:href="#ArialMT-20" x="222.216797"/>
      <use xlink:href="#ArialMT-41" x="244.5"/>
      <use xlink:href="#ArialMT-55" x="311.199219"/>
      <use xlink:href="#ArialMT-43" x="383.416016"/>
     </g>
    </g>
   </g>
   <g id="matplotlib.axis_2">
    <g id="ytick_1"/>
   </g>
   <g id="patch_3">
    <path d="M 16.235 131.0776 
L 16.235 131.0776 
L 16.235 131.0776 
L 16.235 131.0776 
z
" clip-path="url(#paf36677d1b)" style="fill: #abc9ea; stroke: #6f6f6f; stroke-linejoin: miter"/>
   </g>
   <g id="patch_4">
    <path d="M 16.235 131.0776 
L 16.235 131.0776 
L 16.235 131.0776 
L 16.235 131.0776 
z
" clip-path="url(#paf36677d1b)" style="fill: #efb792; stroke: #6f6f6f; stroke-linejoin: miter"/>
   </g>
   <g id="patch_5">
    <path d="M 16.235 131.0776 
L 16.235 131.0776 
L 16.235 131.0776 
L 16.235 131.0776 
z
" clip-path="url(#paf36677d1b)" style="fill: #98daa7; stroke: #6f6f6f; stroke-linejoin: miter"/>
   </g>
   <g id="patch_6">
    <path d="M 16.235 131.0776 
L 16.235 131.0776 
L 16.235 131.0776 
L 16.235 131.0776 
z
" clip-path="url(#paf36677d1b)" style="fill: #f2aba8; stroke: #6f6f6f; stroke-linejoin: miter"/>
   </g>
   <g id="patch_7">
    <path d="M 16.235 131.0776 
L 16.235 131.0776 
L 16.235 131.0776 
L 16.235 131.0776 
z
" clip-path="url(#paf36677d1b)" style="fill: #d3c4f6; stroke: #6f6f6f; stroke-linejoin: miter"/>
   </g>
   <g id="patch_8">
    <path d="M 16.235 131.0776 
L 16.235 131.0776 
L 16.235 131.0776 
L 16.235 131.0776 
z
" clip-path="url(#paf36677d1b)" style="fill: #d6bba3; stroke: #6f6f6f; stroke-linejoin: miter"/>
   </g>
   <g id="patch_9">
    <path d="M 326.976452 83.81572 
L 326.976452 96.85348 
L 508.697078 96.85348 
L 508.697078 83.81572 
L 326.976452 83.81572 
z
" clip-path="url(#paf36677d1b)" style="fill: #abc9ea; stroke: #6f6f6f; stroke-linejoin: miter"/>
   </g>
   <g id="line2d_12">
    <path d="M 326.976452 90.3346 
L 70.937396 90.3346 
" clip-path="url(#paf36677d1b)" style="fill: none; stroke: #6f6f6f"/>
   </g>
   <g id="line2d_13">
    <path d="M 508.697078 90.3346 
L 559.323975 90.3346 
" clip-path="url(#paf36677d1b)" style="fill: none; stroke: #6f6f6f"/>
   </g>
   <g id="line2d_14">
    <path d="M 70.937396 87.07516 
L 70.937396 93.59404 
" clip-path="url(#paf36677d1b)" style="fill: none; stroke: #6f6f6f; stroke-linecap: round"/>
   </g>
   <g id="line2d_15">
    <path d="M 559.323975 87.07516 
L 559.323975 93.59404 
" clip-path="url(#paf36677d1b)" style="fill: none; stroke: #6f6f6f; stroke-linecap: round"/>
   </g>
   <g id="line2d_16">
    <defs>
     <path id="m36c1b6519a" d="M 0 3 
C 0.795609 3 1.55874 2.683901 2.12132 2.12132 
C 2.683901 1.55874 3 0.795609 3 0 
C 3 -0.795609 2.683901 -1.55874 2.12132 -2.12132 
C 1.55874 -2.683901 0.795609 -3 0 -3 
C -0.795609 -3 -1.55874 -2.683901 -2.12132 -2.12132 
C -2.683901 -1.55874 -3 -0.795609 -3 0 
C -3 0.795609 -2.683901 1.55874 -2.12132 2.12132 
C -1.55874 2.683901 -0.795609 3 0 3 
z
" style="stroke: #6f6f6f"/>
    </defs>
    <g clip-path="url(#paf36677d1b)">
     <use xlink:href="#m36c1b6519a" x="35.628997" y="90.3346" style="fill-opacity: 0; stroke: #6f6f6f"/>
     <use xlink:href="#m36c1b6519a" x="39.010931" y="90.3346" style="fill-opacity: 0; stroke: #6f6f6f"/>
    </g>
   </g>
   <g id="patch_10">
    <path d="M 290.403564 100.11292 
L 290.403564 113.15068 
L 485.693341 113.15068 
L 485.693341 100.11292 
L 290.403564 100.11292 
z
" clip-path="url(#paf36677d1b)" style="fill: #efb792; stroke: #6f6f6f; stroke-linejoin: miter"/>
   </g>
   <g id="line2d_17">
    <path d="M 290.403564 106.6318 
L 39.010931 106.6318 
" clip-path="url(#paf36677d1b)" style="fill: none; stroke: #6f6f6f"/>
   </g>
   <g id="line2d_18">
    <path d="M 485.693341 106.6318 
L 559.071592 106.6318 
" clip-path="url(#paf36677d1b)" style="fill: none; stroke: #6f6f6f"/>
   </g>
   <g id="line2d_19">
    <path d="M 39.010931 103.37236 
L 39.010931 109.89124 
" clip-path="url(#paf36677d1b)" style="fill: none; stroke: #6f6f6f; stroke-linecap: round"/>
   </g>
   <g id="line2d_20">
    <path d="M 559.071592 103.37236 
L 559.071592 109.89124 
" clip-path="url(#paf36677d1b)" style="fill: none; stroke: #6f6f6f; stroke-linecap: round"/>
   </g>
   <g id="line2d_21"/>
   <g id="patch_11">
    <path d="M 311.883978 116.41012 
L 311.883978 129.44788 
L 500.892764 129.44788 
L 500.892764 116.41012 
L 311.883978 116.41012 
z
" clip-path="url(#paf36677d1b)" style="fill: #98daa7; stroke: #6f6f6f; stroke-linejoin: miter"/>
   </g>
   <g id="line2d_22">
    <path d="M 311.883978 122.929 
L 39.010931 122.929 
" clip-path="url(#paf36677d1b)" style="fill: none; stroke: #6f6f6f"/>
   </g>
   <g id="line2d_23">
    <path d="M 500.892764 122.929 
L 559.374451 122.929 
" clip-path="url(#paf36677d1b)" style="fill: none; stroke: #6f6f6f"/>
   </g>
   <g id="line2d_24">
    <path d="M 39.010931 119.66956 
L 39.010931 126.18844 
" clip-path="url(#paf36677d1b)" style="fill: none; stroke: #6f6f6f; stroke-linecap: round"/>
   </g>
   <g id="line2d_25">
    <path d="M 559.374451 119.66956 
L 559.374451 126.18844 
" clip-path="url(#paf36677d1b)" style="fill: none; stroke: #6f6f6f; stroke-linecap: round"/>
   </g>
   <g id="line2d_26"/>
   <g id="patch_12">
    <path d="M 308.797849 132.70732 
L 308.797849 145.74508 
L 501.765478 145.74508 
L 501.765478 132.70732 
L 308.797849 132.70732 
z
" clip-path="url(#paf36677d1b)" style="fill: #f2aba8; stroke: #6f6f6f; stroke-linejoin: miter"/>
   </g>
   <g id="line2d_27">
    <path d="M 308.797849 139.2262 
L 51.566991 139.2262 
" clip-path="url(#paf36677d1b)" style="fill: none; stroke: #6f6f6f"/>
   </g>
   <g id="line2d_28">
    <path d="M 501.765478 139.2262 
L 559.374451 139.2262 
" clip-path="url(#paf36677d1b)" style="fill: none; stroke: #6f6f6f"/>
   </g>
   <g id="line2d_29">
    <path d="M 51.566991 135.96676 
L 51.566991 142.48564 
" clip-path="url(#paf36677d1b)" style="fill: none; stroke: #6f6f6f; stroke-linecap: round"/>
   </g>
   <g id="line2d_30">
    <path d="M 559.374451 135.96676 
L 559.374451 142.48564 
" clip-path="url(#paf36677d1b)" style="fill: none; stroke: #6f6f6f; stroke-linecap: round"/>
   </g>
   <g id="line2d_31"/>
   <g id="patch_13">
    <path d="M 310.567283 149.00452 
L 310.567283 162.04228 
L 502.618535 162.04228 
L 502.618535 149.00452 
L 310.567283 149.00452 
z
" clip-path="url(#paf36677d1b)" style="fill: #d3c4f6; stroke: #6f6f6f; stroke-linejoin: miter"/>
   </g>
   <g id="line2d_32">
    <path d="M 310.567283 155.5234 
L 39.010931 155.5234 
" clip-path="url(#paf36677d1b)" style="fill: none; stroke: #6f6f6f"/>
   </g>
   <g id="line2d_33">
    <path d="M 502.618535 155.5234 
L 559.286117 155.5234 
" clip-path="url(#paf36677d1b)" style="fill: none; stroke: #6f6f6f"/>
   </g>
   <g id="line2d_34">
    <path d="M 39.010931 152.26396 
L 39.010931 158.78284 
" clip-path="url(#paf36677d1b)" style="fill: none; stroke: #6f6f6f; stroke-linecap: round"/>
   </g>
   <g id="line2d_35">
    <path d="M 559.286117 152.26396 
L 559.286117 158.78284 
" clip-path="url(#paf36677d1b)" style="fill: none; stroke: #6f6f6f; stroke-linecap: round"/>
   </g>
   <g id="line2d_36"/>
   <g id="patch_14">
    <path d="M 336.449387 165.30172 
L 336.449387 178.33948 
L 510.628229 178.33948 
L 510.628229 165.30172 
L 336.449387 165.30172 
z
" clip-path="url(#paf36677d1b)" style="fill: #d6bba3; stroke: #6f6f6f; stroke-linejoin: miter"/>
   </g>
   <g id="line2d_37">
    <path d="M 336.449387 171.8206 
L 84.364178 171.8206 
" clip-path="url(#paf36677d1b)" style="fill: none; stroke: #6f6f6f"/>
   </g>
   <g id="line2d_38">
    <path d="M 510.628229 171.8206 
L 559.374451 171.8206 
" clip-path="url(#paf36677d1b)" style="fill: none; stroke: #6f6f6f"/>
   </g>
   <g id="line2d_39">
    <path d="M 84.364178 168.56116 
L 84.364178 175.08004 
" clip-path="url(#paf36677d1b)" style="fill: none; stroke: #6f6f6f; stroke-linecap: round"/>
   </g>
   <g id="line2d_40">
    <path d="M 559.374451 168.56116 
L 559.374451 175.08004 
" clip-path="url(#paf36677d1b)" style="fill: none; stroke: #6f6f6f; stroke-linecap: round"/>
   </g>
   <g id="line2d_41">
    <g clip-path="url(#paf36677d1b)">
     <use xlink:href="#m36c1b6519a" x="45.232175" y="171.8206" style="fill-opacity: 0; stroke: #6f6f6f"/>
     <use xlink:href="#m36c1b6519a" x="62.861136" y="171.8206" style="fill-opacity: 0; stroke: #6f6f6f"/>
     <use xlink:href="#m36c1b6519a" x="62.444704" y="171.8206" style="fill-opacity: 0; stroke: #6f6f6f"/>
    </g>
   </g>
   <g id="line2d_42">
    <path d="M 422.561863 83.81572 
L 422.561863 96.85348 
" clip-path="url(#paf36677d1b)" style="fill: none; stroke: #6f6f6f"/>
   </g>
   <g id="line2d_43">
    <path d="M 413.684013 100.11292 
L 413.684013 113.15068 
" clip-path="url(#paf36677d1b)" style="fill: none; stroke: #6f6f6f"/>
   </g>
   <g id="line2d_44">
    <path d="M 395.21185 116.41012 
L 395.21185 129.44788 
" clip-path="url(#paf36677d1b)" style="fill: none; stroke: #6f6f6f"/>
   </g>
   <g id="line2d_45">
    <path d="M 441.25915 132.70732 
L 441.25915 145.74508 
" clip-path="url(#paf36677d1b)" style="fill: none; stroke: #6f6f6f"/>
   </g>
   <g id="line2d_46">
    <path d="M 416.765962 149.00452 
L 416.765962 162.04228 
" clip-path="url(#paf36677d1b)" style="fill: none; stroke: #6f6f6f"/>
   </g>
   <g id="line2d_47">
    <path d="M 433.304888 165.30172 
L 433.304888 178.33948 
" clip-path="url(#paf36677d1b)" style="fill: none; stroke: #6f6f6f"/>
   </g>
   <g id="patch_15">
    <path d="M 9.441724 212.5636 
L 9.441724 49.5916 
" style="fill: none; stroke: #cccccc; stroke-width: 0.8; stroke-linejoin: miter; stroke-linecap: square"/>
   </g>
   <g id="patch_16">
    <path d="M 585.561724 212.5636 
L 585.561724 49.5916 
" style="fill: none; stroke: #cccccc; stroke-width: 0.8; stroke-linejoin: miter; stroke-linecap: square"/>
   </g>
   <g id="patch_17">
    <path d="M 9.441724 212.5636 
L 585.561724 212.5636 
" style="fill: none; stroke: #cccccc; stroke-width: 0.8; stroke-linejoin: miter; stroke-linecap: square"/>
   </g>
   <g id="patch_18">
    <path d="M 9.441724 49.5916 
L 585.561724 49.5916 
" style="fill: none; stroke: #cccccc; stroke-width: 0.8; stroke-linejoin: miter; stroke-linecap: square"/>
   </g>
   <g id="legend_1">
    <g id="patch_19">
     <path d="M 26.731021 47.877812 
L 568.272427 47.877812 
Q 570.872427 47.877812 570.872427 45.277812 
L 570.872427 9.8 
Q 570.872427 7.2 568.272427 7.2 
L 26.731021 7.2 
Q 24.131021 7.2 24.131021 9.8 
L 24.131021 45.277812 
Q 24.131021 47.877812 26.731021 47.877812 
z
" style="fill: #ffffff; opacity: 0.8; stroke: #cccccc; stroke-linejoin: miter"/>
    </g>
    <g id="text_13">
     <!-- Epochs -->
     <g style="fill: #262626" transform="translate(275.822193 21.705156) scale(0.13 -0.13)">
      <defs>
       <path id="ArialMT-45" d="M 506 0 
L 506 4581 
L 3819 4581 
L 3819 4041 
L 1113 4041 
L 1113 2638 
L 3647 2638 
L 3647 2100 
L 1113 2100 
L 1113 541 
L 3925 541 
L 3925 0 
L 506 0 
z
" transform="scale(0.015625)"/>
       <path id="ArialMT-70" d="M 422 -1272 
L 422 3319 
L 934 3319 
L 934 2888 
Q 1116 3141 1344 3267 
Q 1572 3394 1897 3394 
Q 2322 3394 2647 3175 
Q 2972 2956 3137 2557 
Q 3303 2159 3303 1684 
Q 3303 1175 3120 767 
Q 2938 359 2589 142 
Q 2241 -75 1856 -75 
Q 1575 -75 1351 44 
Q 1128 163 984 344 
L 984 -1272 
L 422 -1272 
z
M 931 1641 
Q 931 1000 1190 694 
Q 1450 388 1819 388 
Q 2194 388 2461 705 
Q 2728 1022 2728 1688 
Q 2728 2322 2467 2637 
Q 2206 2953 1844 2953 
Q 1484 2953 1207 2617 
Q 931 2281 931 1641 
z
" transform="scale(0.015625)"/>
       <path id="ArialMT-6f" d="M 213 1659 
Q 213 2581 725 3025 
Q 1153 3394 1769 3394 
Q 2453 3394 2887 2945 
Q 3322 2497 3322 1706 
Q 3322 1066 3130 698 
Q 2938 331 2570 128 
Q 2203 -75 1769 -75 
Q 1072 -75 642 372 
Q 213 819 213 1659 
z
M 791 1659 
Q 791 1022 1069 705 
Q 1347 388 1769 388 
Q 2188 388 2466 706 
Q 2744 1025 2744 1678 
Q 2744 2294 2464 2611 
Q 2184 2928 1769 2928 
Q 1347 2928 1069 2612 
Q 791 2297 791 1659 
z
" transform="scale(0.015625)"/>
       <path id="ArialMT-63" d="M 2588 1216 
L 3141 1144 
Q 3050 572 2676 248 
Q 2303 -75 1759 -75 
Q 1078 -75 664 370 
Q 250 816 250 1647 
Q 250 2184 428 2587 
Q 606 2991 970 3192 
Q 1334 3394 1763 3394 
Q 2303 3394 2647 3120 
Q 2991 2847 3088 2344 
L 2541 2259 
Q 2463 2594 2264 2762 
Q 2066 2931 1784 2931 
Q 1359 2931 1093 2626 
Q 828 2322 828 1663 
Q 828 994 1084 691 
Q 1341 388 1753 388 
Q 2084 388 2306 591 
Q 2528 794 2588 1216 
z
" transform="scale(0.015625)"/>
       <path id="ArialMT-68" d="M 422 0 
L 422 4581 
L 984 4581 
L 984 2938 
Q 1378 3394 1978 3394 
Q 2347 3394 2619 3248 
Q 2891 3103 3008 2847 
Q 3125 2591 3125 2103 
L 3125 0 
L 2563 0 
L 2563 2103 
Q 2563 2525 2380 2717 
Q 2197 2909 1863 2909 
Q 1613 2909 1392 2779 
Q 1172 2650 1078 2428 
Q 984 2206 984 1816 
L 984 0 
L 422 0 
z
" transform="scale(0.015625)"/>
       <path id="ArialMT-73" d="M 197 991 
L 753 1078 
Q 800 744 1014 566 
Q 1228 388 1613 388 
Q 2000 388 2187 545 
Q 2375 703 2375 916 
Q 2375 1106 2209 1216 
Q 2094 1291 1634 1406 
Q 1016 1563 777 1677 
Q 538 1791 414 1992 
Q 291 2194 291 2438 
Q 291 2659 392 2848 
Q 494 3038 669 3163 
Q 800 3259 1026 3326 
Q 1253 3394 1513 3394 
Q 1903 3394 2198 3281 
Q 2494 3169 2634 2976 
Q 2775 2784 2828 2463 
L 2278 2388 
Q 2241 2644 2061 2787 
Q 1881 2931 1553 2931 
Q 1166 2931 1000 2803 
Q 834 2675 834 2503 
Q 834 2394 903 2306 
Q 972 2216 1119 2156 
Q 1203 2125 1616 2013 
Q 2213 1853 2448 1751 
Q 2684 1650 2818 1456 
Q 2953 1263 2953 975 
Q 2953 694 2789 445 
Q 2625 197 2315 61 
Q 2006 -75 1616 -75 
Q 969 -75 630 194 
Q 291 463 197 991 
z
" transform="scale(0.015625)"/>
      </defs>
      <use xlink:href="#ArialMT-45"/>
      <use xlink:href="#ArialMT-70" x="66.699219"/>
      <use xlink:href="#ArialMT-6f" x="122.314453"/>
      <use xlink:href="#ArialMT-63" x="177.929688"/>
      <use xlink:href="#ArialMT-68" x="227.929688"/>
      <use xlink:href="#ArialMT-73" x="283.544922"/>
     </g>
    </g>
    <g id="patch_20">
     <path d="M 29.331021 40.094062 
L 55.331021 40.094062 
L 55.331021 30.994062 
L 29.331021 30.994062 
z
" style="fill: #abc9ea; stroke: #6f6f6f; stroke-linejoin: miter"/>
    </g>
    <g id="text_14">
     <!-- 50.0 -->
     <g style="fill: #262626" transform="translate(65.731021 40.094062) scale(0.13 -0.13)">
      <use xlink:href="#ArialMT-35"/>
      <use xlink:href="#ArialMT-30" x="55.615234"/>
      <use xlink:href="#ArialMT-2e" x="111.230469"/>
      <use xlink:href="#ArialMT-30" x="139.013672"/>
     </g>
    </g>
    <g id="patch_21">
     <path d="M 117.03024 40.094062 
L 143.03024 40.094062 
L 143.03024 30.994062 
L 117.03024 30.994062 
z
" style="fill: #efb792; stroke: #6f6f6f; stroke-linejoin: miter"/>
    </g>
    <g id="text_15">
     <!-- 100.0 -->
     <g style="fill: #262626" transform="translate(153.43024 40.094062) scale(0.13 -0.13)">
      <use xlink:href="#ArialMT-31"/>
      <use xlink:href="#ArialMT-30" x="55.615234"/>
      <use xlink:href="#ArialMT-30" x="111.230469"/>
      <use xlink:href="#ArialMT-2e" x="166.845703"/>
      <use xlink:href="#ArialMT-30" x="194.628906"/>
     </g>
    </g>
    <g id="patch_22">
     <path d="M 211.958677 40.094062 
L 237.958677 40.094062 
L 237.958677 30.994062 
L 211.958677 30.994062 
z
" style="fill: #98daa7; stroke: #6f6f6f; stroke-linejoin: miter"/>
    </g>
    <g id="text_16">
     <!-- 150.0 -->
     <g style="fill: #262626" transform="translate(248.358677 40.094062) scale(0.13 -0.13)">
      <use xlink:href="#ArialMT-31"/>
      <use xlink:href="#ArialMT-35" x="55.615234"/>
      <use xlink:href="#ArialMT-30" x="111.230469"/>
      <use xlink:href="#ArialMT-2e" x="166.845703"/>
      <use xlink:href="#ArialMT-30" x="194.628906"/>
     </g>
    </g>
    <g id="patch_23">
     <path d="M 306.887115 40.094062 
L 332.887115 40.094062 
L 332.887115 30.994062 
L 306.887115 30.994062 
z
" style="fill: #f2aba8; stroke: #6f6f6f; stroke-linejoin: miter"/>
    </g>
    <g id="text_17">
     <!-- 200.0 -->
     <g style="fill: #262626" transform="translate(343.287115 40.094062) scale(0.13 -0.13)">
      <use xlink:href="#ArialMT-32"/>
      <use xlink:href="#ArialMT-30" x="55.615234"/>
      <use xlink:href="#ArialMT-30" x="111.230469"/>
      <use xlink:href="#ArialMT-2e" x="166.845703"/>
      <use xlink:href="#ArialMT-30" x="194.628906"/>
     </g>
    </g>
    <g id="patch_24">
     <path d="M 401.815552 40.094062 
L 427.815552 40.094062 
L 427.815552 30.994062 
L 401.815552 30.994062 
z
" style="fill: #d3c4f6; stroke: #6f6f6f; stroke-linejoin: miter"/>
    </g>
    <g id="text_18">
     <!-- 250.0 -->
     <g style="fill: #262626" transform="translate(438.215552 40.094062) scale(0.13 -0.13)">
      <use xlink:href="#ArialMT-32"/>
      <use xlink:href="#ArialMT-35" x="55.615234"/>
      <use xlink:href="#ArialMT-30" x="111.230469"/>
      <use xlink:href="#ArialMT-2e" x="166.845703"/>
      <use xlink:href="#ArialMT-30" x="194.628906"/>
     </g>
    </g>
    <g id="patch_25">
     <path d="M 496.74399 40.094062 
L 522.74399 40.094062 
L 522.74399 30.994062 
L 496.74399 30.994062 
z
" style="fill: #d6bba3; stroke: #6f6f6f; stroke-linejoin: miter"/>
    </g>
    <g id="text_19">
     <!-- 300.0 -->
     <g style="fill: #262626" transform="translate(533.14399 40.094062) scale(0.13 -0.13)">
      <use xlink:href="#ArialMT-33"/>
      <use xlink:href="#ArialMT-30" x="55.615234"/>
      <use xlink:href="#ArialMT-30" x="111.230469"/>
      <use xlink:href="#ArialMT-2e" x="166.845703"/>
      <use xlink:href="#ArialMT-30" x="194.628906"/>
     </g>
    </g>
   </g>
  </g>
 </g>
 <defs>
  <clipPath id="paf36677d1b">
   <rect x="9.441724" y="49.5916" width="576.12" height="162.972"/>
  </clipPath>
 </defs>
</svg>
