<?xml version="1.0" encoding="utf-8" standalone="no"?>
<!DOCTYPE svg PUBLIC "-//W3C//DTD SVG 1.1//EN"
  "http://www.w3.org/Graphics/SVG/1.1/DTD/svg11.dtd">
<svg xmlns:xlink="http://www.w3.org/1999/xlink" width="772.685937pt" height="336.649812pt" viewBox="0 0 772.685937 336.649812" xmlns="http://www.w3.org/2000/svg" version="1.1">
 <metadata>
  <rdf:RDF xmlns:dc="http://purl.org/dc/elements/1.1/" xmlns:cc="http://creativecommons.org/ns#" xmlns:rdf="http://www.w3.org/1999/02/22-rdf-syntax-ns#">
   <cc:Work>
    <dc:type rdf:resource="http://purl.org/dc/dcmitype/StillImage"/>
    <dc:date>2025-03-22T22:54:16.417834</dc:date>
    <dc:format>image/svg+xml</dc:format>
    <dc:creator>
     <cc:Agent>
      <dc:title>Matplotlib v3.8.2, https://matplotlib.org/</dc:title>
     </cc:Agent>
    </dc:creator>
   </cc:Work>
  </rdf:RDF>
 </metadata>
 <defs>
  <style type="text/css">*{stroke-linejoin: round; stroke-linecap: butt}</style>
 </defs>
 <g id="figure_1">
  <g id="patch_1">
   <path d="M 0 336.649812 
L 772.685937 336.649812 
L 772.685937 0 
L 0 0 
z
" style="fill: #ffffff"/>
  </g>
  <g id="axes_1">
   <g id="patch_2">
    <path d="M 13.424338 294.672 
L 761.744338 294.672 
L 761.744338 55.112 
L 13.424338 55.112 
z
" style="fill: #ffffff"/>
   </g>
   <g id="matplotlib.axis_1">
    <g id="xtick_1">
     <g id="line2d_1">
      <path d="M 18.591689 294.672 
L 18.591689 55.112 
" clip-path="url(#p4925d28f60)" style="fill: none; stroke: #cccccc; stroke-width: 0.8; stroke-linecap: round"/>
     </g>
     <g id="text_1">
      <!-- 0.0 -->
      <g style="fill: #262626" transform="translate(9.556689 310.977156) scale(0.13 -0.13)">
       <defs>
        <path id="ArialMT-30" d="M 266 2259 
Q 266 3072 433 3567 
Q 600 4063 929 4331 
Q 1259 4600 1759 4600 
Q 2128 4600 2406 4451 
Q 2684 4303 2865 4023 
Q 3047 3744 3150 3342 
Q 3253 2941 3253 2259 
Q 3253 1453 3087 958 
Q 2922 463 2592 192 
Q 2263 -78 1759 -78 
Q 1097 -78 719 397 
Q 266 969 266 2259 
z
M 844 2259 
Q 844 1131 1108 757 
Q 1372 384 1759 384 
Q 2147 384 2411 759 
Q 2675 1134 2675 2259 
Q 2675 3391 2411 3762 
Q 2147 4134 1753 4134 
Q 1366 4134 1134 3806 
Q 844 3388 844 2259 
z
" transform="scale(0.015625)"/>
        <path id="ArialMT-2e" d="M 581 0 
L 581 641 
L 1222 641 
L 1222 0 
L 581 0 
z
" transform="scale(0.015625)"/>
       </defs>
       <use xlink:href="#ArialMT-30"/>
       <use xlink:href="#ArialMT-2e" x="55.615234"/>
       <use xlink:href="#ArialMT-30" x="83.398438"/>
      </g>
     </g>
    </g>
    <g id="xtick_2">
     <g id="line2d_2">
      <path d="M 160.427906 294.672 
L 160.427906 55.112 
" clip-path="url(#p4925d28f60)" style="fill: none; stroke: #cccccc; stroke-width: 0.8; stroke-linecap: round"/>
     </g>
     <g id="text_2">
      <!-- 0.2 -->
      <g style="fill: #262626" transform="translate(151.392906 310.977156) scale(0.13 -0.13)">
       <defs>
        <path id="ArialMT-32" d="M 3222 541 
L 3222 0 
L 194 0 
Q 188 203 259 391 
Q 375 700 629 1000 
Q 884 1300 1366 1694 
Q 2113 2306 2375 2664 
Q 2638 3022 2638 3341 
Q 2638 3675 2398 3904 
Q 2159 4134 1775 4134 
Q 1369 4134 1125 3890 
Q 881 3647 878 3216 
L 300 3275 
Q 359 3922 746 4261 
Q 1134 4600 1788 4600 
Q 2447 4600 2831 4234 
Q 3216 3869 3216 3328 
Q 3216 3053 3103 2787 
Q 2991 2522 2730 2228 
Q 2469 1934 1863 1422 
Q 1356 997 1212 845 
Q 1069 694 975 541 
L 3222 541 
z
" transform="scale(0.015625)"/>
       </defs>
       <use xlink:href="#ArialMT-30"/>
       <use xlink:href="#ArialMT-2e" x="55.615234"/>
       <use xlink:href="#ArialMT-32" x="83.398438"/>
      </g>
     </g>
    </g>
    <g id="xtick_3">
     <g id="line2d_3">
      <path d="M 302.264122 294.672 
L 302.264122 55.112 
" clip-path="url(#p4925d28f60)" style="fill: none; stroke: #cccccc; stroke-width: 0.8; stroke-linecap: round"/>
     </g>
     <g id="text_3">
      <!-- 0.4 -->
      <g style="fill: #262626" transform="translate(293.229122 310.977156) scale(0.13 -0.13)">
       <defs>
        <path id="ArialMT-34" d="M 2069 0 
L 2069 1097 
L 81 1097 
L 81 1613 
L 2172 4581 
L 2631 4581 
L 2631 1613 
L 3250 1613 
L 3250 1097 
L 2631 1097 
L 2631 0 
L 2069 0 
z
M 2069 1613 
L 2069 3678 
L 634 1613 
L 2069 1613 
z
" transform="scale(0.015625)"/>
       </defs>
       <use xlink:href="#ArialMT-30"/>
       <use xlink:href="#ArialMT-2e" x="55.615234"/>
       <use xlink:href="#ArialMT-34" x="83.398438"/>
      </g>
     </g>
    </g>
    <g id="xtick_4">
     <g id="line2d_4">
      <path d="M 444.100339 294.672 
L 444.100339 55.112 
" clip-path="url(#p4925d28f60)" style="fill: none; stroke: #cccccc; stroke-width: 0.8; stroke-linecap: round"/>
     </g>
     <g id="text_4">
      <!-- 0.6 -->
      <g style="fill: #262626" transform="translate(435.065339 310.977156) scale(0.13 -0.13)">
       <defs>
        <path id="ArialMT-36" d="M 3184 3459 
L 2625 3416 
Q 2550 3747 2413 3897 
Q 2184 4138 1850 4138 
Q 1581 4138 1378 3988 
Q 1113 3794 959 3422 
Q 806 3050 800 2363 
Q 1003 2672 1297 2822 
Q 1591 2972 1913 2972 
Q 2475 2972 2870 2558 
Q 3266 2144 3266 1488 
Q 3266 1056 3080 686 
Q 2894 316 2569 119 
Q 2244 -78 1831 -78 
Q 1128 -78 684 439 
Q 241 956 241 2144 
Q 241 3472 731 4075 
Q 1159 4600 1884 4600 
Q 2425 4600 2770 4297 
Q 3116 3994 3184 3459 
z
M 888 1484 
Q 888 1194 1011 928 
Q 1134 663 1356 523 
Q 1578 384 1822 384 
Q 2178 384 2434 671 
Q 2691 959 2691 1453 
Q 2691 1928 2437 2201 
Q 2184 2475 1800 2475 
Q 1419 2475 1153 2201 
Q 888 1928 888 1484 
z
" transform="scale(0.015625)"/>
       </defs>
       <use xlink:href="#ArialMT-30"/>
       <use xlink:href="#ArialMT-2e" x="55.615234"/>
       <use xlink:href="#ArialMT-36" x="83.398438"/>
      </g>
     </g>
    </g>
    <g id="xtick_5">
     <g id="line2d_5">
      <path d="M 585.936556 294.672 
L 585.936556 55.112 
" clip-path="url(#p4925d28f60)" style="fill: none; stroke: #cccccc; stroke-width: 0.8; stroke-linecap: round"/>
     </g>
     <g id="text_5">
      <!-- 0.8 -->
      <g style="fill: #262626" transform="translate(576.901556 310.977156) scale(0.13 -0.13)">
       <defs>
        <path id="ArialMT-38" d="M 1131 2484 
Q 781 2613 612 2850 
Q 444 3088 444 3419 
Q 444 3919 803 4259 
Q 1163 4600 1759 4600 
Q 2359 4600 2725 4251 
Q 3091 3903 3091 3403 
Q 3091 3084 2923 2848 
Q 2756 2613 2416 2484 
Q 2838 2347 3058 2040 
Q 3278 1734 3278 1309 
Q 3278 722 2862 322 
Q 2447 -78 1769 -78 
Q 1091 -78 675 323 
Q 259 725 259 1325 
Q 259 1772 486 2073 
Q 713 2375 1131 2484 
z
M 1019 3438 
Q 1019 3113 1228 2906 
Q 1438 2700 1772 2700 
Q 2097 2700 2305 2904 
Q 2513 3109 2513 3406 
Q 2513 3716 2298 3927 
Q 2084 4138 1766 4138 
Q 1444 4138 1231 3931 
Q 1019 3725 1019 3438 
z
M 838 1322 
Q 838 1081 952 856 
Q 1066 631 1291 507 
Q 1516 384 1775 384 
Q 2178 384 2440 643 
Q 2703 903 2703 1303 
Q 2703 1709 2433 1975 
Q 2163 2241 1756 2241 
Q 1359 2241 1098 1978 
Q 838 1716 838 1322 
z
" transform="scale(0.015625)"/>
       </defs>
       <use xlink:href="#ArialMT-30"/>
       <use xlink:href="#ArialMT-2e" x="55.615234"/>
       <use xlink:href="#ArialMT-38" x="83.398438"/>
      </g>
     </g>
    </g>
    <g id="xtick_6">
     <g id="line2d_6">
      <path d="M 727.772773 294.672 
L 727.772773 55.112 
" clip-path="url(#p4925d28f60)" style="fill: none; stroke: #cccccc; stroke-width: 0.8; stroke-linecap: round"/>
     </g>
     <g id="text_6">
      <!-- 1.0 -->
      <g style="fill: #262626" transform="translate(718.737773 310.977156) scale(0.13 -0.13)">
       <defs>
        <path id="ArialMT-31" d="M 2384 0 
L 1822 0 
L 1822 3584 
Q 1619 3391 1289 3197 
Q 959 3003 697 2906 
L 697 3450 
Q 1169 3672 1522 3987 
Q 1875 4303 2022 4600 
L 2384 4600 
L 2384 0 
z
" transform="scale(0.015625)"/>
       </defs>
       <use xlink:href="#ArialMT-31"/>
       <use xlink:href="#ArialMT-2e" x="55.615234"/>
       <use xlink:href="#ArialMT-30" x="83.398438"/>
      </g>
     </g>
    </g>
    <g id="text_7">
     <!-- ROC AUC -->
     <g style="fill: #262626" transform="translate(357.967697 326.866062) scale(0.13 -0.13)">
      <defs>
       <path id="ArialMT-52" d="M 503 0 
L 503 4581 
L 2534 4581 
Q 3147 4581 3465 4457 
Q 3784 4334 3975 4021 
Q 4166 3709 4166 3331 
Q 4166 2844 3850 2509 
Q 3534 2175 2875 2084 
Q 3116 1969 3241 1856 
Q 3506 1613 3744 1247 
L 4541 0 
L 3778 0 
L 3172 953 
Q 2906 1366 2734 1584 
Q 2563 1803 2427 1890 
Q 2291 1978 2150 2013 
Q 2047 2034 1813 2034 
L 1109 2034 
L 1109 0 
L 503 0 
z
M 1109 2559 
L 2413 2559 
Q 2828 2559 3062 2645 
Q 3297 2731 3419 2920 
Q 3541 3109 3541 3331 
Q 3541 3656 3305 3865 
Q 3069 4075 2559 4075 
L 1109 4075 
L 1109 2559 
z
" transform="scale(0.015625)"/>
       <path id="ArialMT-4f" d="M 309 2231 
Q 309 3372 921 4017 
Q 1534 4663 2503 4663 
Q 3138 4663 3647 4359 
Q 4156 4056 4423 3514 
Q 4691 2972 4691 2284 
Q 4691 1588 4409 1038 
Q 4128 488 3612 205 
Q 3097 -78 2500 -78 
Q 1853 -78 1343 234 
Q 834 547 571 1087 
Q 309 1628 309 2231 
z
M 934 2222 
Q 934 1394 1379 917 
Q 1825 441 2497 441 
Q 3181 441 3623 922 
Q 4066 1403 4066 2288 
Q 4066 2847 3877 3264 
Q 3688 3681 3323 3911 
Q 2959 4141 2506 4141 
Q 1863 4141 1398 3698 
Q 934 3256 934 2222 
z
" transform="scale(0.015625)"/>
       <path id="ArialMT-43" d="M 3763 1606 
L 4369 1453 
Q 4178 706 3683 314 
Q 3188 -78 2472 -78 
Q 1731 -78 1267 223 
Q 803 525 561 1097 
Q 319 1669 319 2325 
Q 319 3041 592 3573 
Q 866 4106 1370 4382 
Q 1875 4659 2481 4659 
Q 3169 4659 3637 4309 
Q 4106 3959 4291 3325 
L 3694 3184 
Q 3534 3684 3231 3912 
Q 2928 4141 2469 4141 
Q 1941 4141 1586 3887 
Q 1231 3634 1087 3207 
Q 944 2781 944 2328 
Q 944 1744 1114 1308 
Q 1284 872 1643 656 
Q 2003 441 2422 441 
Q 2931 441 3284 734 
Q 3638 1028 3763 1606 
z
" transform="scale(0.015625)"/>
       <path id="ArialMT-20" transform="scale(0.015625)"/>
       <path id="ArialMT-41" d="M -9 0 
L 1750 4581 
L 2403 4581 
L 4278 0 
L 3588 0 
L 3053 1388 
L 1138 1388 
L 634 0 
L -9 0 
z
M 1313 1881 
L 2866 1881 
L 2388 3150 
Q 2169 3728 2063 4100 
Q 1975 3659 1816 3225 
L 1313 1881 
z
" transform="scale(0.015625)"/>
       <path id="ArialMT-55" d="M 3500 4581 
L 4106 4581 
L 4106 1934 
Q 4106 1244 3950 837 
Q 3794 431 3386 176 
Q 2978 -78 2316 -78 
Q 1672 -78 1262 144 
Q 853 366 678 786 
Q 503 1206 503 1934 
L 503 4581 
L 1109 4581 
L 1109 1938 
Q 1109 1341 1220 1058 
Q 1331 775 1601 622 
Q 1872 469 2263 469 
Q 2931 469 3215 772 
Q 3500 1075 3500 1938 
L 3500 4581 
z
" transform="scale(0.015625)"/>
      </defs>
      <use xlink:href="#ArialMT-52"/>
      <use xlink:href="#ArialMT-4f" x="72.216797"/>
      <use xlink:href="#ArialMT-43" x="150"/>
      <use xlink:href="#ArialMT-20" x="222.216797"/>
      <use xlink:href="#ArialMT-41" x="244.5"/>
      <use xlink:href="#ArialMT-55" x="311.199219"/>
      <use xlink:href="#ArialMT-43" x="383.416016"/>
     </g>
    </g>
   </g>
   <g id="matplotlib.axis_2">
    <g id="ytick_1"/>
   </g>
   <g id="patch_3">
    <path d="M 18.591689 174.892 
L 18.591689 174.892 
L 18.591689 174.892 
L 18.591689 174.892 
z
" clip-path="url(#p4925d28f60)" style="fill: #abc9ea; stroke: #6f6f6f; stroke-linejoin: miter"/>
   </g>
   <g id="patch_4">
    <path d="M 18.591689 174.892 
L 18.591689 174.892 
L 18.591689 174.892 
L 18.591689 174.892 
z
" clip-path="url(#p4925d28f60)" style="fill: #efb792; stroke: #6f6f6f; stroke-linejoin: miter"/>
   </g>
   <g id="patch_5">
    <path d="M 18.591689 174.892 
L 18.591689 174.892 
L 18.591689 174.892 
L 18.591689 174.892 
z
" clip-path="url(#p4925d28f60)" style="fill: #98daa7; stroke: #6f6f6f; stroke-linejoin: miter"/>
   </g>
   <g id="patch_6">
    <path d="M 18.591689 174.892 
L 18.591689 174.892 
L 18.591689 174.892 
L 18.591689 174.892 
z
" clip-path="url(#p4925d28f60)" style="fill: #f2aba8; stroke: #6f6f6f; stroke-linejoin: miter"/>
   </g>
   <g id="patch_7">
    <path d="M 18.591689 174.892 
L 18.591689 174.892 
L 18.591689 174.892 
L 18.591689 174.892 
z
" clip-path="url(#p4925d28f60)" style="fill: #d3c4f6; stroke: #6f6f6f; stroke-linejoin: miter"/>
   </g>
   <g id="patch_8">
    <path d="M 18.591689 174.892 
L 18.591689 174.892 
L 18.591689 174.892 
L 18.591689 174.892 
z
" clip-path="url(#p4925d28f60)" style="fill: #d6bba3; stroke: #6f6f6f; stroke-linejoin: miter"/>
   </g>
   <g id="patch_9">
    <path d="M 18.591689 174.892 
L 18.591689 174.892 
L 18.591689 174.892 
L 18.591689 174.892 
z
" clip-path="url(#p4925d28f60)" style="fill: #f1b9e0; stroke: #6f6f6f; stroke-linejoin: miter"/>
   </g>
   <g id="patch_10">
    <path d="M 18.591689 174.892 
L 18.591689 174.892 
L 18.591689 174.892 
L 18.591689 174.892 
z
" clip-path="url(#p4925d28f60)" style="fill: #cfcfcf; stroke: #6f6f6f; stroke-linejoin: miter"/>
   </g>
   <g id="patch_11">
    <path d="M 396.248705 105.71905 
L 396.248705 118.29595 
L 590.106105 118.29595 
L 590.106105 105.71905 
L 396.248705 105.71905 
z
" clip-path="url(#p4925d28f60)" style="fill: #abc9ea; stroke: #6f6f6f; stroke-linejoin: miter"/>
   </g>
   <g id="line2d_7">
    <path d="M 396.248705 112.0075 
L 123.837743 112.0075 
" clip-path="url(#p4925d28f60)" style="fill: none; stroke: #6f6f6f"/>
   </g>
   <g id="line2d_8">
    <path d="M 590.106105 112.0075 
L 727.663888 112.0075 
" clip-path="url(#p4925d28f60)" style="fill: none; stroke: #6f6f6f"/>
   </g>
   <g id="line2d_9">
    <path d="M 123.837743 108.863275 
L 123.837743 115.151725 
" clip-path="url(#p4925d28f60)" style="fill: none; stroke: #6f6f6f; stroke-linecap: round"/>
   </g>
   <g id="line2d_10">
    <path d="M 727.663888 108.863275 
L 727.663888 115.151725 
" clip-path="url(#p4925d28f60)" style="fill: none; stroke: #6f6f6f; stroke-linecap: round"/>
   </g>
   <g id="line2d_11">
    <defs>
     <path id="m457fe0823f" d="M 0 3 
C 0.795609 3 1.55874 2.683901 2.12132 2.12132 
C 2.683901 1.55874 3 0.795609 3 0 
C 3 -0.795609 2.683901 -1.55874 2.12132 -2.12132 
C 1.55874 -2.683901 0.795609 -3 0 -3 
C -0.795609 -3 -1.55874 -2.683901 -2.12132 -2.12132 
C -2.683901 -1.55874 -3 -0.795609 -3 0 
C -3 0.795609 -2.683901 1.55874 -2.12132 2.12132 
C -1.55874 2.683901 -0.795609 3 0 3 
z
" style="stroke: #6f6f6f"/>
    </defs>
    <g clip-path="url(#p4925d28f60)">
     <use xlink:href="#m457fe0823f" x="60.323056" y="112.0075" style="fill-opacity: 0; stroke: #6f6f6f"/>
     <use xlink:href="#m457fe0823f" x="48.328583" y="112.0075" style="fill-opacity: 0; stroke: #6f6f6f"/>
    </g>
   </g>
   <g id="patch_12">
    <path d="M 414.631937 123.68605 
L 414.631937 136.26295 
L 650.719857 136.26295 
L 650.719857 123.68605 
L 414.631937 123.68605 
z
" clip-path="url(#p4925d28f60)" style="fill: #efb792; stroke: #6f6f6f; stroke-linejoin: miter"/>
   </g>
   <g id="line2d_12">
    <path d="M 414.631937 129.9745 
L 125.10639 129.9745 
" clip-path="url(#p4925d28f60)" style="fill: none; stroke: #6f6f6f"/>
   </g>
   <g id="line2d_13">
    <path d="M 650.719857 129.9745 
L 727.235514 129.9745 
" clip-path="url(#p4925d28f60)" style="fill: none; stroke: #6f6f6f"/>
   </g>
   <g id="line2d_14">
    <path d="M 125.10639 126.830275 
L 125.10639 133.118725 
" clip-path="url(#p4925d28f60)" style="fill: none; stroke: #6f6f6f; stroke-linecap: round"/>
   </g>
   <g id="line2d_15">
    <path d="M 727.235514 126.830275 
L 727.235514 133.118725 
" clip-path="url(#p4925d28f60)" style="fill: none; stroke: #6f6f6f; stroke-linecap: round"/>
   </g>
   <g id="line2d_16">
    <g clip-path="url(#p4925d28f60)">
     <use xlink:href="#m457fe0823f" x="48.328583" y="129.9745" style="fill-opacity: 0; stroke: #6f6f6f"/>
    </g>
   </g>
   <g id="patch_13">
    <path d="M 426.263629 141.65305 
L 426.263629 154.22995 
L 655.517583 154.22995 
L 655.517583 141.65305 
L 426.263629 141.65305 
z
" clip-path="url(#p4925d28f60)" style="fill: #98daa7; stroke: #6f6f6f; stroke-linejoin: miter"/>
   </g>
   <g id="line2d_17">
    <path d="M 426.263629 147.9415 
L 131.795615 147.9415 
" clip-path="url(#p4925d28f60)" style="fill: none; stroke: #6f6f6f"/>
   </g>
   <g id="line2d_18">
    <path d="M 655.517583 147.9415 
L 727.647412 147.9415 
" clip-path="url(#p4925d28f60)" style="fill: none; stroke: #6f6f6f"/>
   </g>
   <g id="line2d_19">
    <path d="M 131.795615 144.797275 
L 131.795615 151.085725 
" clip-path="url(#p4925d28f60)" style="fill: none; stroke: #6f6f6f; stroke-linecap: round"/>
   </g>
   <g id="line2d_20">
    <path d="M 727.647412 144.797275 
L 727.647412 151.085725 
" clip-path="url(#p4925d28f60)" style="fill: none; stroke: #6f6f6f; stroke-linecap: round"/>
   </g>
   <g id="line2d_21">
    <g clip-path="url(#p4925d28f60)">
     <use xlink:href="#m457fe0823f" x="61.723509" y="147.9415" style="fill-opacity: 0; stroke: #6f6f6f"/>
     <use xlink:href="#m457fe0823f" x="60.75143" y="147.9415" style="fill-opacity: 0; stroke: #6f6f6f"/>
     <use xlink:href="#m457fe0823f" x="76.436509" y="147.9415" style="fill-opacity: 0; stroke: #6f6f6f"/>
    </g>
   </g>
   <g id="patch_14">
    <path d="M 435.34397 159.62005 
L 435.34397 172.19695 
L 654.982952 172.19695 
L 654.982952 159.62005 
L 435.34397 159.62005 
z
" clip-path="url(#p4925d28f60)" style="fill: #f2aba8; stroke: #6f6f6f; stroke-linejoin: miter"/>
   </g>
   <g id="line2d_22">
    <path d="M 435.34397 165.9085 
L 131.215376 165.9085 
" clip-path="url(#p4925d28f60)" style="fill: none; stroke: #6f6f6f"/>
   </g>
   <g id="line2d_23">
    <path d="M 654.982952 165.9085 
L 727.663888 165.9085 
" clip-path="url(#p4925d28f60)" style="fill: none; stroke: #6f6f6f"/>
   </g>
   <g id="line2d_24">
    <path d="M 131.215376 162.764275 
L 131.215376 169.052725 
" clip-path="url(#p4925d28f60)" style="fill: none; stroke: #6f6f6f; stroke-linecap: round"/>
   </g>
   <g id="line2d_25">
    <path d="M 727.663888 162.764275 
L 727.663888 169.052725 
" clip-path="url(#p4925d28f60)" style="fill: none; stroke: #6f6f6f; stroke-linecap: round"/>
   </g>
   <g id="line2d_26">
    <g clip-path="url(#p4925d28f60)">
     <use xlink:href="#m457fe0823f" x="48.328583" y="165.9085" style="fill-opacity: 0; stroke: #6f6f6f"/>
    </g>
   </g>
   <g id="patch_15">
    <path d="M 429.826006 177.58705 
L 429.826006 190.16395 
L 663.374832 190.16395 
L 663.374832 177.58705 
L 429.826006 177.58705 
z
" clip-path="url(#p4925d28f60)" style="fill: #d3c4f6; stroke: #6f6f6f; stroke-linejoin: miter"/>
   </g>
   <g id="line2d_27">
    <path d="M 429.826006 183.8755 
L 82.960975 183.8755 
" clip-path="url(#p4925d28f60)" style="fill: none; stroke: #6f6f6f"/>
   </g>
   <g id="line2d_28">
    <path d="M 663.374832 183.8755 
L 727.729792 183.8755 
" clip-path="url(#p4925d28f60)" style="fill: none; stroke: #6f6f6f"/>
   </g>
   <g id="line2d_29">
    <path d="M 82.960975 180.731275 
L 82.960975 187.019725 
" clip-path="url(#p4925d28f60)" style="fill: none; stroke: #6f6f6f; stroke-linecap: round"/>
   </g>
   <g id="line2d_30">
    <path d="M 727.729792 180.731275 
L 727.729792 187.019725 
" clip-path="url(#p4925d28f60)" style="fill: none; stroke: #6f6f6f; stroke-linecap: round"/>
   </g>
   <g id="line2d_31">
    <g clip-path="url(#p4925d28f60)">
     <use xlink:href="#m457fe0823f" x="48.328583" y="183.8755" style="fill-opacity: 0; stroke: #6f6f6f"/>
    </g>
   </g>
   <g id="patch_16">
    <path d="M 424.110456 195.55405 
L 424.110456 208.13095 
L 660.096123 208.13095 
L 660.096123 195.55405 
L 424.110456 195.55405 
z
" clip-path="url(#p4925d28f60)" style="fill: #d6bba3; stroke: #6f6f6f; stroke-linejoin: miter"/>
   </g>
   <g id="line2d_32">
    <path d="M 424.110456 201.8425 
L 144.926926 201.8425 
" clip-path="url(#p4925d28f60)" style="fill: none; stroke: #6f6f6f"/>
   </g>
   <g id="line2d_33">
    <path d="M 660.096123 201.8425 
L 727.614461 201.8425 
" clip-path="url(#p4925d28f60)" style="fill: none; stroke: #6f6f6f"/>
   </g>
   <g id="line2d_34">
    <path d="M 144.926926 198.698275 
L 144.926926 204.986725 
" clip-path="url(#p4925d28f60)" style="fill: none; stroke: #6f6f6f; stroke-linecap: round"/>
   </g>
   <g id="line2d_35">
    <path d="M 727.614461 198.698275 
L 727.614461 204.986725 
" clip-path="url(#p4925d28f60)" style="fill: none; stroke: #6f6f6f; stroke-linecap: round"/>
   </g>
   <g id="line2d_36">
    <g clip-path="url(#p4925d28f60)">
     <use xlink:href="#m457fe0823f" x="48.328583" y="201.8425" style="fill-opacity: 0; stroke: #6f6f6f"/>
    </g>
   </g>
   <g id="patch_17">
    <path d="M 395.640874 213.52105 
L 395.640874 226.09795 
L 652.236102 226.09795 
L 652.236102 213.52105 
L 395.640874 213.52105 
z
" clip-path="url(#p4925d28f60)" style="fill: #f1b9e0; stroke: #6f6f6f; stroke-linejoin: miter"/>
   </g>
   <g id="line2d_37">
    <path d="M 395.640874 219.8095 
L 48.328583 219.8095 
" clip-path="url(#p4925d28f60)" style="fill: none; stroke: #6f6f6f"/>
   </g>
   <g id="line2d_38">
    <path d="M 652.236102 219.8095 
L 727.729792 219.8095 
" clip-path="url(#p4925d28f60)" style="fill: none; stroke: #6f6f6f"/>
   </g>
   <g id="line2d_39">
    <path d="M 48.328583 216.665275 
L 48.328583 222.953725 
" clip-path="url(#p4925d28f60)" style="fill: none; stroke: #6f6f6f; stroke-linecap: round"/>
   </g>
   <g id="line2d_40">
    <path d="M 727.729792 216.665275 
L 727.729792 222.953725 
" clip-path="url(#p4925d28f60)" style="fill: none; stroke: #6f6f6f; stroke-linecap: round"/>
   </g>
   <g id="line2d_41"/>
   <g id="patch_18">
    <path d="M 366.968474 231.48805 
L 366.968474 244.06495 
L 647.830216 244.06495 
L 647.830216 231.48805 
L 366.968474 231.48805 
z
" clip-path="url(#p4925d28f60)" style="fill: #cfcfcf; stroke: #6f6f6f; stroke-linejoin: miter"/>
   </g>
   <g id="line2d_42">
    <path d="M 366.968474 237.7765 
L 47.438883 237.7765 
" clip-path="url(#p4925d28f60)" style="fill: none; stroke: #6f6f6f"/>
   </g>
   <g id="line2d_43">
    <path d="M 647.830216 237.7765 
L 727.729792 237.7765 
" clip-path="url(#p4925d28f60)" style="fill: none; stroke: #6f6f6f"/>
   </g>
   <g id="line2d_44">
    <path d="M 47.438883 234.632275 
L 47.438883 240.920725 
" clip-path="url(#p4925d28f60)" style="fill: none; stroke: #6f6f6f; stroke-linecap: round"/>
   </g>
   <g id="line2d_45">
    <path d="M 727.729792 234.632275 
L 727.729792 240.920725 
" clip-path="url(#p4925d28f60)" style="fill: none; stroke: #6f6f6f; stroke-linecap: round"/>
   </g>
   <g id="line2d_46"/>
   <g id="line2d_47">
    <path d="M 486.939236 105.71905 
L 486.939236 118.29595 
" clip-path="url(#p4925d28f60)" style="fill: none; stroke: #6f6f6f"/>
   </g>
   <g id="line2d_48">
    <path d="M 535.664575 123.68605 
L 535.664575 136.26295 
" clip-path="url(#p4925d28f60)" style="fill: none; stroke: #6f6f6f"/>
   </g>
   <g id="line2d_49">
    <path d="M 554.553956 141.65305 
L 554.553956 154.22995 
" clip-path="url(#p4925d28f60)" style="fill: none; stroke: #6f6f6f"/>
   </g>
   <g id="line2d_50">
    <path d="M 570.597261 159.62005 
L 570.597261 172.19695 
" clip-path="url(#p4925d28f60)" style="fill: none; stroke: #6f6f6f"/>
   </g>
   <g id="line2d_51">
    <path d="M 540.127184 177.58705 
L 540.127184 190.16395 
" clip-path="url(#p4925d28f60)" style="fill: none; stroke: #6f6f6f"/>
   </g>
   <g id="line2d_52">
    <path d="M 547.296791 195.55405 
L 547.296791 208.13095 
" clip-path="url(#p4925d28f60)" style="fill: none; stroke: #6f6f6f"/>
   </g>
   <g id="line2d_53">
    <path d="M 547.349559 213.52105 
L 547.349559 226.09795 
" clip-path="url(#p4925d28f60)" style="fill: none; stroke: #6f6f6f"/>
   </g>
   <g id="line2d_54">
    <path d="M 547.687143 231.48805 
L 547.687143 244.06495 
" clip-path="url(#p4925d28f60)" style="fill: none; stroke: #6f6f6f"/>
   </g>
   <g id="patch_19">
    <path d="M 13.424338 294.672 
L 13.424338 55.112 
" style="fill: none; stroke: #cccccc; stroke-width: 0.8; stroke-linejoin: miter; stroke-linecap: square"/>
   </g>
   <g id="patch_20">
    <path d="M 761.744338 294.672 
L 761.744338 55.112 
" style="fill: none; stroke: #cccccc; stroke-width: 0.8; stroke-linejoin: miter; stroke-linecap: square"/>
   </g>
   <g id="patch_21">
    <path d="M 13.424338 294.672 
L 761.744338 294.672 
" style="fill: none; stroke: #cccccc; stroke-width: 0.8; stroke-linejoin: miter; stroke-linecap: square"/>
   </g>
   <g id="patch_22">
    <path d="M 13.424338 55.112 
L 761.744338 55.112 
" style="fill: none; stroke: #cccccc; stroke-width: 0.8; stroke-linejoin: miter; stroke-linecap: square"/>
   </g>
   <g id="legend_1">
    <g id="patch_23">
     <path d="M 9.8 47.877812 
L 762.885938 47.877812 
Q 765.485938 47.877812 765.485938 45.277812 
L 765.485938 9.8 
Q 765.485938 7.2 762.885938 7.2 
L 9.8 7.2 
Q 7.2 7.2 7.2 9.8 
L 7.2 45.277812 
Q 7.2 47.877812 9.8 47.877812 
z
" style="fill: #ffffff; opacity: 0.8; stroke: #cccccc; stroke-linejoin: miter"/>
    </g>
    <g id="text_8">
     <!-- Bandwidth Parameter -->
     <g style="fill: #262626" transform="translate(323.841406 21.705156) scale(0.13 -0.13)">
      <defs>
       <path id="ArialMT-42" d="M 469 0 
L 469 4581 
L 2188 4581 
Q 2713 4581 3030 4442 
Q 3347 4303 3526 4014 
Q 3706 3725 3706 3409 
Q 3706 3116 3547 2856 
Q 3388 2597 3066 2438 
Q 3481 2316 3704 2022 
Q 3928 1728 3928 1328 
Q 3928 1006 3792 729 
Q 3656 453 3456 303 
Q 3256 153 2954 76 
Q 2653 0 2216 0 
L 469 0 
z
M 1075 2656 
L 2066 2656 
Q 2469 2656 2644 2709 
Q 2875 2778 2992 2937 
Q 3109 3097 3109 3338 
Q 3109 3566 3000 3739 
Q 2891 3913 2687 3977 
Q 2484 4041 1991 4041 
L 1075 4041 
L 1075 2656 
z
M 1075 541 
L 2216 541 
Q 2509 541 2628 563 
Q 2838 600 2978 687 
Q 3119 775 3209 942 
Q 3300 1109 3300 1328 
Q 3300 1584 3169 1773 
Q 3038 1963 2805 2039 
Q 2572 2116 2134 2116 
L 1075 2116 
L 1075 541 
z
" transform="scale(0.015625)"/>
       <path id="ArialMT-61" d="M 2588 409 
Q 2275 144 1986 34 
Q 1697 -75 1366 -75 
Q 819 -75 525 192 
Q 231 459 231 875 
Q 231 1119 342 1320 
Q 453 1522 633 1644 
Q 813 1766 1038 1828 
Q 1203 1872 1538 1913 
Q 2219 1994 2541 2106 
Q 2544 2222 2544 2253 
Q 2544 2597 2384 2738 
Q 2169 2928 1744 2928 
Q 1347 2928 1158 2789 
Q 969 2650 878 2297 
L 328 2372 
Q 403 2725 575 2942 
Q 747 3159 1072 3276 
Q 1397 3394 1825 3394 
Q 2250 3394 2515 3294 
Q 2781 3194 2906 3042 
Q 3031 2891 3081 2659 
Q 3109 2516 3109 2141 
L 3109 1391 
Q 3109 606 3145 398 
Q 3181 191 3288 0 
L 2700 0 
Q 2613 175 2588 409 
z
M 2541 1666 
Q 2234 1541 1622 1453 
Q 1275 1403 1131 1340 
Q 988 1278 909 1158 
Q 831 1038 831 891 
Q 831 666 1001 516 
Q 1172 366 1500 366 
Q 1825 366 2078 508 
Q 2331 650 2450 897 
Q 2541 1088 2541 1459 
L 2541 1666 
z
" transform="scale(0.015625)"/>
       <path id="ArialMT-6e" d="M 422 0 
L 422 3319 
L 928 3319 
L 928 2847 
Q 1294 3394 1984 3394 
Q 2284 3394 2536 3286 
Q 2788 3178 2913 3003 
Q 3038 2828 3088 2588 
Q 3119 2431 3119 2041 
L 3119 0 
L 2556 0 
L 2556 2019 
Q 2556 2363 2490 2533 
Q 2425 2703 2258 2804 
Q 2091 2906 1866 2906 
Q 1506 2906 1245 2678 
Q 984 2450 984 1813 
L 984 0 
L 422 0 
z
" transform="scale(0.015625)"/>
       <path id="ArialMT-64" d="M 2575 0 
L 2575 419 
Q 2259 -75 1647 -75 
Q 1250 -75 917 144 
Q 584 363 401 755 
Q 219 1147 219 1656 
Q 219 2153 384 2558 
Q 550 2963 881 3178 
Q 1213 3394 1622 3394 
Q 1922 3394 2156 3267 
Q 2391 3141 2538 2938 
L 2538 4581 
L 3097 4581 
L 3097 0 
L 2575 0 
z
M 797 1656 
Q 797 1019 1065 703 
Q 1334 388 1700 388 
Q 2069 388 2326 689 
Q 2584 991 2584 1609 
Q 2584 2291 2321 2609 
Q 2059 2928 1675 2928 
Q 1300 2928 1048 2622 
Q 797 2316 797 1656 
z
" transform="scale(0.015625)"/>
       <path id="ArialMT-77" d="M 1034 0 
L 19 3319 
L 600 3319 
L 1128 1403 
L 1325 691 
Q 1338 744 1497 1375 
L 2025 3319 
L 2603 3319 
L 3100 1394 
L 3266 759 
L 3456 1400 
L 4025 3319 
L 4572 3319 
L 3534 0 
L 2950 0 
L 2422 1988 
L 2294 2553 
L 1622 0 
L 1034 0 
z
" transform="scale(0.015625)"/>
       <path id="ArialMT-69" d="M 425 3934 
L 425 4581 
L 988 4581 
L 988 3934 
L 425 3934 
z
M 425 0 
L 425 3319 
L 988 3319 
L 988 0 
L 425 0 
z
" transform="scale(0.015625)"/>
       <path id="ArialMT-74" d="M 1650 503 
L 1731 6 
Q 1494 -44 1306 -44 
Q 1000 -44 831 53 
Q 663 150 594 308 
Q 525 466 525 972 
L 525 2881 
L 113 2881 
L 113 3319 
L 525 3319 
L 525 4141 
L 1084 4478 
L 1084 3319 
L 1650 3319 
L 1650 2881 
L 1084 2881 
L 1084 941 
Q 1084 700 1114 631 
Q 1144 563 1211 522 
Q 1278 481 1403 481 
Q 1497 481 1650 503 
z
" transform="scale(0.015625)"/>
       <path id="ArialMT-68" d="M 422 0 
L 422 4581 
L 984 4581 
L 984 2938 
Q 1378 3394 1978 3394 
Q 2347 3394 2619 3248 
Q 2891 3103 3008 2847 
Q 3125 2591 3125 2103 
L 3125 0 
L 2563 0 
L 2563 2103 
Q 2563 2525 2380 2717 
Q 2197 2909 1863 2909 
Q 1613 2909 1392 2779 
Q 1172 2650 1078 2428 
Q 984 2206 984 1816 
L 984 0 
L 422 0 
z
" transform="scale(0.015625)"/>
       <path id="ArialMT-50" d="M 494 0 
L 494 4581 
L 2222 4581 
Q 2678 4581 2919 4538 
Q 3256 4481 3484 4323 
Q 3713 4166 3852 3881 
Q 3991 3597 3991 3256 
Q 3991 2672 3619 2267 
Q 3247 1863 2275 1863 
L 1100 1863 
L 1100 0 
L 494 0 
z
M 1100 2403 
L 2284 2403 
Q 2872 2403 3119 2622 
Q 3366 2841 3366 3238 
Q 3366 3525 3220 3729 
Q 3075 3934 2838 4000 
Q 2684 4041 2272 4041 
L 1100 4041 
L 1100 2403 
z
" transform="scale(0.015625)"/>
       <path id="ArialMT-72" d="M 416 0 
L 416 3319 
L 922 3319 
L 922 2816 
Q 1116 3169 1280 3281 
Q 1444 3394 1641 3394 
Q 1925 3394 2219 3213 
L 2025 2691 
Q 1819 2813 1613 2813 
Q 1428 2813 1281 2702 
Q 1134 2591 1072 2394 
Q 978 2094 978 1738 
L 978 0 
L 416 0 
z
" transform="scale(0.015625)"/>
       <path id="ArialMT-6d" d="M 422 0 
L 422 3319 
L 925 3319 
L 925 2853 
Q 1081 3097 1340 3245 
Q 1600 3394 1931 3394 
Q 2300 3394 2536 3241 
Q 2772 3088 2869 2813 
Q 3263 3394 3894 3394 
Q 4388 3394 4653 3120 
Q 4919 2847 4919 2278 
L 4919 0 
L 4359 0 
L 4359 2091 
Q 4359 2428 4304 2576 
Q 4250 2725 4106 2815 
Q 3963 2906 3769 2906 
Q 3419 2906 3187 2673 
Q 2956 2441 2956 1928 
L 2956 0 
L 2394 0 
L 2394 2156 
Q 2394 2531 2256 2718 
Q 2119 2906 1806 2906 
Q 1569 2906 1367 2781 
Q 1166 2656 1075 2415 
Q 984 2175 984 1722 
L 984 0 
L 422 0 
z
" transform="scale(0.015625)"/>
       <path id="ArialMT-65" d="M 2694 1069 
L 3275 997 
Q 3138 488 2766 206 
Q 2394 -75 1816 -75 
Q 1088 -75 661 373 
Q 234 822 234 1631 
Q 234 2469 665 2931 
Q 1097 3394 1784 3394 
Q 2450 3394 2872 2941 
Q 3294 2488 3294 1666 
Q 3294 1616 3291 1516 
L 816 1516 
Q 847 969 1125 678 
Q 1403 388 1819 388 
Q 2128 388 2347 550 
Q 2566 713 2694 1069 
z
M 847 1978 
L 2700 1978 
Q 2663 2397 2488 2606 
Q 2219 2931 1791 2931 
Q 1403 2931 1139 2672 
Q 875 2413 847 1978 
z
" transform="scale(0.015625)"/>
      </defs>
      <use xlink:href="#ArialMT-42"/>
      <use xlink:href="#ArialMT-61" x="66.699219"/>
      <use xlink:href="#ArialMT-6e" x="122.314453"/>
      <use xlink:href="#ArialMT-64" x="177.929688"/>
      <use xlink:href="#ArialMT-77" x="233.544922"/>
      <use xlink:href="#ArialMT-69" x="305.761719"/>
      <use xlink:href="#ArialMT-64" x="327.978516"/>
      <use xlink:href="#ArialMT-74" x="383.59375"/>
      <use xlink:href="#ArialMT-68" x="411.376953"/>
      <use xlink:href="#ArialMT-20" x="466.992188"/>
      <use xlink:href="#ArialMT-50" x="494.775391"/>
      <use xlink:href="#ArialMT-61" x="561.474609"/>
      <use xlink:href="#ArialMT-72" x="617.089844"/>
      <use xlink:href="#ArialMT-61" x="650.390625"/>
      <use xlink:href="#ArialMT-6d" x="706.005859"/>
      <use xlink:href="#ArialMT-65" x="789.306641"/>
      <use xlink:href="#ArialMT-74" x="844.921875"/>
      <use xlink:href="#ArialMT-65" x="872.705078"/>
      <use xlink:href="#ArialMT-72" x="928.320312"/>
     </g>
    </g>
    <g id="patch_24">
     <path d="M 12.4 40.094062 
L 38.4 40.094062 
L 38.4 30.994062 
L 12.4 30.994062 
z
" style="fill: #abc9ea; stroke: #6f6f6f; stroke-linejoin: miter"/>
    </g>
    <g id="text_9">
     <!-- 0.0002 -->
     <g style="fill: #262626" transform="translate(48.8 40.094062) scale(0.13 -0.13)">
      <use xlink:href="#ArialMT-30"/>
      <use xlink:href="#ArialMT-2e" x="55.615234"/>
      <use xlink:href="#ArialMT-30" x="83.398438"/>
      <use xlink:href="#ArialMT-30" x="139.013672"/>
      <use xlink:href="#ArialMT-30" x="194.628906"/>
      <use xlink:href="#ArialMT-32" x="250.244141"/>
     </g>
    </g>
    <g id="patch_25">
     <path d="M 114.557656 40.094062 
L 140.557656 40.094062 
L 140.557656 30.994062 
L 114.557656 30.994062 
z
" style="fill: #efb792; stroke: #6f6f6f; stroke-linejoin: miter"/>
    </g>
    <g id="text_10">
     <!-- 0.0005 -->
     <g style="fill: #262626" transform="translate(150.957656 40.094062) scale(0.13 -0.13)">
      <defs>
       <path id="ArialMT-35" d="M 266 1200 
L 856 1250 
Q 922 819 1161 601 
Q 1400 384 1738 384 
Q 2144 384 2425 690 
Q 2706 997 2706 1503 
Q 2706 1984 2436 2262 
Q 2166 2541 1728 2541 
Q 1456 2541 1237 2417 
Q 1019 2294 894 2097 
L 366 2166 
L 809 4519 
L 3088 4519 
L 3088 3981 
L 1259 3981 
L 1013 2750 
Q 1425 3038 1878 3038 
Q 2478 3038 2890 2622 
Q 3303 2206 3303 1553 
Q 3303 931 2941 478 
Q 2500 -78 1738 -78 
Q 1113 -78 717 272 
Q 322 622 266 1200 
z
" transform="scale(0.015625)"/>
      </defs>
      <use xlink:href="#ArialMT-30"/>
      <use xlink:href="#ArialMT-2e" x="55.615234"/>
      <use xlink:href="#ArialMT-30" x="83.398438"/>
      <use xlink:href="#ArialMT-30" x="139.013672"/>
      <use xlink:href="#ArialMT-30" x="194.628906"/>
      <use xlink:href="#ArialMT-35" x="250.244141"/>
     </g>
    </g>
    <g id="patch_26">
     <path d="M 216.715313 40.094062 
L 242.715313 40.094062 
L 242.715313 30.994062 
L 216.715313 30.994062 
z
" style="fill: #98daa7; stroke: #6f6f6f; stroke-linejoin: miter"/>
    </g>
    <g id="text_11">
     <!-- 0.0008 -->
     <g style="fill: #262626" transform="translate(253.115313 40.094062) scale(0.13 -0.13)">
      <use xlink:href="#ArialMT-30"/>
      <use xlink:href="#ArialMT-2e" x="55.615234"/>
      <use xlink:href="#ArialMT-30" x="83.398438"/>
      <use xlink:href="#ArialMT-30" x="139.013672"/>
      <use xlink:href="#ArialMT-30" x="194.628906"/>
      <use xlink:href="#ArialMT-38" x="250.244141"/>
     </g>
    </g>
    <g id="patch_27">
     <path d="M 318.872969 40.094062 
L 344.872969 40.094062 
L 344.872969 30.994062 
L 318.872969 30.994062 
z
" style="fill: #f2aba8; stroke: #6f6f6f; stroke-linejoin: miter"/>
    </g>
    <g id="text_12">
     <!-- 0.001 -->
     <g style="fill: #262626" transform="translate(355.272969 40.094062) scale(0.13 -0.13)">
      <use xlink:href="#ArialMT-30"/>
      <use xlink:href="#ArialMT-2e" x="55.615234"/>
      <use xlink:href="#ArialMT-30" x="83.398438"/>
      <use xlink:href="#ArialMT-30" x="139.013672"/>
      <use xlink:href="#ArialMT-31" x="194.628906"/>
     </g>
    </g>
    <g id="patch_28">
     <path d="M 413.801406 40.094062 
L 439.801406 40.094062 
L 439.801406 30.994062 
L 413.801406 30.994062 
z
" style="fill: #d3c4f6; stroke: #6f6f6f; stroke-linejoin: miter"/>
    </g>
    <g id="text_13">
     <!-- 0.002 -->
     <g style="fill: #262626" transform="translate(450.201406 40.094062) scale(0.13 -0.13)">
      <use xlink:href="#ArialMT-30"/>
      <use xlink:href="#ArialMT-2e" x="55.615234"/>
      <use xlink:href="#ArialMT-30" x="83.398438"/>
      <use xlink:href="#ArialMT-30" x="139.013672"/>
      <use xlink:href="#ArialMT-32" x="194.628906"/>
     </g>
    </g>
    <g id="patch_29">
     <path d="M 508.729844 40.094062 
L 534.729844 40.094062 
L 534.729844 30.994062 
L 508.729844 30.994062 
z
" style="fill: #d6bba3; stroke: #6f6f6f; stroke-linejoin: miter"/>
    </g>
    <g id="text_14">
     <!-- 0.004 -->
     <g style="fill: #262626" transform="translate(545.129844 40.094062) scale(0.13 -0.13)">
      <use xlink:href="#ArialMT-30"/>
      <use xlink:href="#ArialMT-2e" x="55.615234"/>
      <use xlink:href="#ArialMT-30" x="83.398438"/>
      <use xlink:href="#ArialMT-30" x="139.013672"/>
      <use xlink:href="#ArialMT-34" x="194.628906"/>
     </g>
    </g>
    <g id="patch_30">
     <path d="M 603.658281 40.094062 
L 629.658281 40.094062 
L 629.658281 30.994062 
L 603.658281 30.994062 
z
" style="fill: #f1b9e0; stroke: #6f6f6f; stroke-linejoin: miter"/>
    </g>
    <g id="text_15">
     <!-- 0.006 -->
     <g style="fill: #262626" transform="translate(640.058281 40.094062) scale(0.13 -0.13)">
      <use xlink:href="#ArialMT-30"/>
      <use xlink:href="#ArialMT-2e" x="55.615234"/>
      <use xlink:href="#ArialMT-30" x="83.398438"/>
      <use xlink:href="#ArialMT-30" x="139.013672"/>
      <use xlink:href="#ArialMT-36" x="194.628906"/>
     </g>
    </g>
    <g id="patch_31">
     <path d="M 698.586719 40.094062 
L 724.586719 40.094062 
L 724.586719 30.994062 
L 698.586719 30.994062 
z
" style="fill: #cfcfcf; stroke: #6f6f6f; stroke-linejoin: miter"/>
    </g>
    <g id="text_16">
     <!-- 0.01 -->
     <g style="fill: #262626" transform="translate(734.986719 40.094062) scale(0.13 -0.13)">
      <use xlink:href="#ArialMT-30"/>
      <use xlink:href="#ArialMT-2e" x="55.615234"/>
      <use xlink:href="#ArialMT-30" x="83.398438"/>
      <use xlink:href="#ArialMT-31" x="139.013672"/>
     </g>
    </g>
   </g>
  </g>
 </g>
 <defs>
  <clipPath id="p4925d28f60">
   <rect x="13.424338" y="55.112" width="748.32" height="239.56"/>
  </clipPath>
 </defs>
</svg>
